<svg xmlns="http://www.w3.org/2000/svg" width="1292" height="958" viewBox="0 0 1292 958" role="img" aria-labelledby="title desc">
  <title id="title">AMD RDNA4 benchmark sweep: ZINC vs llama.cpp</title>
  <desc id="desc">Five-model AMD RDNA4 comparison showing ZINC ahead of llama.cpp on decode throughput, prefill throughput, and overall percentage.</desc>
  <defs>
    <linearGradient id="zincBar" x1="0" y1="0" x2="1" y2="0">
      <stop offset="0%" stop-color="#d94b0c"/>
      <stop offset="100%" stop-color="#f59e0b"/>
    </linearGradient>
    <linearGradient id="llamaBar" x1="0" y1="0" x2="1" y2="0">
      <stop offset="0%" stop-color="#2653dc"/>
      <stop offset="100%" stop-color="#5ca6fb"/>
    </linearGradient>
    <radialGradient id="cornerGlow" cx="50%" cy="50%" r="50%">
      <stop offset="0%" stop-color="#243cff" stop-opacity="0.35"/>
      <stop offset="48%" stop-color="#1721a8" stop-opacity="0.14"/>
      <stop offset="100%" stop-color="#000000" stop-opacity="0"/>
    </radialGradient>
    <pattern id="dots" width="6" height="6" patternUnits="userSpaceOnUse">
      <circle cx="1" cy="1" r="0.8" fill="#3847ff" opacity="0.26"/>
    </pattern>
    <filter id="outerShadow" x="-4%" y="-4%" width="108%" height="112%">
      <feDropShadow dx="0" dy="18" stdDeviation="24" flood-color="#000000" flood-opacity="0.48"/>
    </filter>
  </defs>

  <rect width="1292" height="958" fill="#0b0f16"/>
  <rect x="44" y="9" width="1216" height="942" rx="30" fill="#08090b" filter="url(#outerShadow)"/>
  <rect x="73" y="38" width="1157" height="884" rx="24" fill="#0d0d0f" stroke="#2b2b32" stroke-width="1.4"/>
  <rect x="900" y="632" width="310" height="270" fill="url(#cornerGlow)" opacity="0.72"/>
  <rect x="900" y="632" width="310" height="270" fill="url(#dots)" opacity="0.42"/>

  <g font-family="Inter, -apple-system, BlinkMacSystemFont, 'Segoe UI', sans-serif">
    <text x="113" y="102" fill="#f7f7f8" font-size="38" font-weight="850" letter-spacing="0">AMD RDNA4 — Radeon AI PRO R9700</text>
    <text x="113" y="139" fill="#a8a8b3" font-size="21" font-weight="500" letter-spacing="0">32 GB VRAM · 576 GB/s · fair server-vs-server suite · 2026-07-01</text>

    <g transform="translate(113 172)">
      <rect width="180" height="55" rx="27.5" fill="#0b3018" stroke="#196a34" stroke-width="1.4"/>
      <text x="27" y="35" fill="#21e36a" font-size="22" font-weight="850">5/5 decode</text>
    </g>
    <g transform="translate(312 172)">
      <rect width="180" height="55" rx="27.5" fill="#0b3018" stroke="#196a34" stroke-width="1.4"/>
      <text x="27" y="35" fill="#21e36a" font-size="22" font-weight="850">5/5 prefill</text>
    </g>
    <g transform="translate(511 172)">
      <rect width="181" height="55" rx="27.5" fill="#0b3018" stroke="#196a34" stroke-width="1.4"/>
      <text x="27" y="35" fill="#21e36a" font-size="22" font-weight="850">5/5 overall</text>
    </g>
    <g transform="translate(711 172)">
      <rect width="207" height="55" rx="27.5" fill="#2a1706" stroke="#854606" stroke-width="1.4"/>
      <text x="25" y="35" fill="#ffb128" font-size="22" font-weight="850">166.8 tok/s top</text>
    </g>

    <g font-size="18" font-weight="500">
      <circle cx="880" cy="274" r="7.5" fill="url(#zincBar)"/>
      <text x="898" y="280" fill="#f0f0f3">ZINC</text>
      <circle cx="969" cy="274" r="7.5" fill="url(#llamaBar)"/>
      <text x="987" y="280" fill="#f0f0f3">llama.cpp</text>
      <text x="1191" y="280" fill="#858590" text-anchor="end">decode tok/s</text>
    </g>

    <line x1="113" y1="300" x2="1191" y2="300" stroke="#29292f" stroke-width="1.2"/>

    <g transform="translate(113 315)">
      <text x="0" y="18" fill="#f7f7f8" font-size="25" font-weight="850">Qwen 3.6 35B A3B UD Q4K XL</text>
      <rect x="0" y="36" width="254" height="36" rx="18" fill="#082f17" stroke="#1f7a3d" stroke-width="1.4"/>
      <text x="21" y="61" fill="#21e36a" font-size="20" font-weight="850">1.54x llama.cpp</text>
      <rect x="400" y="9" width="548" height="18" rx="9" fill="url(#zincBar)"/>
      <rect x="400" y="45" width="356" height="18" rx="9" fill="url(#llamaBar)"/>
      <text x="1077" y="27" fill="#ffffff" font-size="20" font-weight="850" text-anchor="end">166.8</text>
      <text x="1077" y="63" fill="#b1b1bc" font-size="20" font-weight="500" text-anchor="end">108.5</text>
      <text x="400" y="92" fill="#a8a8b3" font-size="18" font-weight="500">Prefill 540 ZINC · 397 llama.cpp · Overall 151%</text>
    </g>

    <g transform="translate(113 434)">
      <text x="0" y="18" fill="#f7f7f8" font-size="25" font-weight="850">Qwen 3.5 9B Q4K M</text>
      <rect x="0" y="36" width="254" height="36" rx="18" fill="#082f17" stroke="#1f7a3d" stroke-width="1.4"/>
      <text x="21" y="61" fill="#21e36a" font-size="20" font-weight="850">1.14x llama.cpp</text>
      <rect x="400" y="9" width="320" height="18" rx="9" fill="url(#zincBar)"/>
      <rect x="400" y="45" width="280" height="18" rx="9" fill="url(#llamaBar)"/>
      <text x="1077" y="27" fill="#ffffff" font-size="20" font-weight="850" text-anchor="end">97.5</text>
      <text x="1077" y="63" fill="#b1b1bc" font-size="20" font-weight="500" text-anchor="end">85.5</text>
      <text x="400" y="92" fill="#a8a8b3" font-size="18" font-weight="500">Prefill 739 ZINC · 549 llama.cpp · Overall 115%</text>
    </g>

    <g transform="translate(113 553)">
      <text x="0" y="18" fill="#f7f7f8" font-size="25" font-weight="850">Qwen 3.8 27B Dense Q4K M</text>
      <rect x="0" y="36" width="254" height="36" rx="18" fill="#082f17" stroke="#1f7a3d" stroke-width="1.4"/>
      <text x="21" y="61" fill="#21e36a" font-size="20" font-weight="850">1.04x llama.cpp</text>
      <rect x="400" y="9" width="105" height="18" rx="9" fill="url(#zincBar)"/>
      <rect x="400" y="45" width="101" height="18" rx="9" fill="url(#llamaBar)"/>
      <text x="1077" y="27" fill="#ffffff" font-size="20" font-weight="850" text-anchor="end">32.2</text>
      <text x="1077" y="63" fill="#b1b1bc" font-size="20" font-weight="500" text-anchor="end">30.9</text>
      <text x="400" y="92" fill="#a8a8b3" font-size="18" font-weight="500">Prefill 242 ZINC · 198 llama.cpp · Overall 109%</text>
    </g>

    <g transform="translate(113 672)">
      <text x="0" y="18" fill="#f7f7f8" font-size="25" font-weight="850">Gemma 4 26B-A4B MoE Q4K M</text>
      <rect x="0" y="36" width="254" height="36" rx="18" fill="#082f17" stroke="#1f7a3d" stroke-width="1.4"/>
      <text x="21" y="61" fill="#21e36a" font-size="20" font-weight="850">1.11x llama.cpp</text>
      <rect x="400" y="9" width="373" height="18" rx="9" fill="url(#zincBar)"/>
      <rect x="400" y="45" width="335" height="18" rx="9" fill="url(#llamaBar)"/>
      <text x="1077" y="27" fill="#ffffff" font-size="20" font-weight="850" text-anchor="end">113.7</text>
      <text x="1077" y="63" fill="#b1b1bc" font-size="20" font-weight="500" text-anchor="end">102.1</text>
      <text x="400" y="92" fill="#a8a8b3" font-size="18" font-weight="500">Prefill 809 ZINC · 497 llama.cpp · Overall 115%</text>
    </g>

    <g transform="translate(113 791)">
      <text x="0" y="18" fill="#f7f7f8" font-size="25" font-weight="850">Gemma 4 31B Q4K M</text>
      <rect x="0" y="36" width="254" height="36" rx="18" fill="#082f17" stroke="#1f7a3d" stroke-width="1.4"/>
      <text x="21" y="61" fill="#21e36a" font-size="20" font-weight="850">1.01x llama.cpp</text>
      <rect x="400" y="9" width="94" height="18" rx="9" fill="url(#zincBar)"/>
      <rect x="400" y="45" width="94" height="18" rx="9" fill="url(#llamaBar)"/>
      <text x="1077" y="27" fill="#ffffff" font-size="20" font-weight="850" text-anchor="end">28.8</text>
      <text x="1077" y="63" fill="#b1b1bc" font-size="20" font-weight="500" text-anchor="end">28.5</text>
      <text x="400" y="92" fill="#a8a8b3" font-size="18" font-weight="500">Prefill 249 ZINC · 200 llama.cpp · Overall 103%</text>
    </g>
  </g>
</svg>
