<svg viewBox="0 0 1000 600" xmlns="http://www.w3.org/2000/svg" font-family="'Segoe UI', 'Helvetica Neue', Arial, sans-serif">
<rect x="0" y="0" width="1000" height="600" rx="14" fill="#16181d"/>
<text x="34" y="42" fill="#e9edf4" font-size="21" font-weight="700">Quantizing the KV cache pushes the swarm&#8217;s crossover from 5k to 10k tokens</text>
<text x="34" y="66" fill="#9aa3b2" font-size="12.5">Qwen3.5-9B on one 16 GB RX 9070 XT: eight agents split one 5.5 GB weight stream per decode step, but each reads its own KV cache.</text>
<text x="34" y="84" fill="#9aa3b2" font-size="12.5">FP16 KV traffic overtakes the shared weights at about 5k tokens per agent; a Q8 KV cache halves the slope and moves that crossover to 10k.</text>
<line x1="150" y1="466.0" x2="610" y2="466.0" stroke="#2a2e37" stroke-width="1"/>
<text x="142" y="470.0" fill="#6b7280" font-size="11" text-anchor="end">0</text>
<line x1="150" y1="408.0" x2="610" y2="408.0" stroke="#2a2e37" stroke-width="1"/>
<text x="142" y="412.0" fill="#6b7280" font-size="11" text-anchor="end">3</text>
<line x1="150" y1="350.0" x2="610" y2="350.0" stroke="#2a2e37" stroke-width="1"/>
<text x="142" y="354.0" fill="#6b7280" font-size="11" text-anchor="end">6</text>
<line x1="150" y1="292.0" x2="610" y2="292.0" stroke="#2a2e37" stroke-width="1"/>
<text x="142" y="296.0" fill="#6b7280" font-size="11" text-anchor="end">9</text>
<line x1="150" y1="234.0" x2="610" y2="234.0" stroke="#2a2e37" stroke-width="1"/>
<text x="142" y="238.0" fill="#6b7280" font-size="11" text-anchor="end">12</text>
<line x1="150" y1="176.0" x2="610" y2="176.0" stroke="#2a2e37" stroke-width="1"/>
<text x="142" y="180.0" fill="#6b7280" font-size="11" text-anchor="end">15</text>
<line x1="150" y1="118.0" x2="610" y2="118.0" stroke="#2a2e37" stroke-width="1"/>
<text x="142" y="122.0" fill="#6b7280" font-size="11" text-anchor="end">18</text>
<line x1="150.0" y1="118" x2="150.0" y2="466" stroke="#2a2e37" stroke-width="1" opacity="0.5"/>
<text x="150.0" y="484.0" fill="#6b7280" font-size="11" text-anchor="middle">0</text>
<line x1="265.0" y1="118" x2="265.0" y2="466" stroke="#2a2e37" stroke-width="1" opacity="0.5"/>
<text x="265.0" y="484.0" fill="#6b7280" font-size="11" text-anchor="middle">8k</text>
<line x1="380.0" y1="118" x2="380.0" y2="466" stroke="#2a2e37" stroke-width="1" opacity="0.5"/>
<text x="380.0" y="484.0" fill="#6b7280" font-size="11" text-anchor="middle">16k</text>
<line x1="495.0" y1="118" x2="495.0" y2="466" stroke="#2a2e37" stroke-width="1" opacity="0.5"/>
<text x="495.0" y="484.0" fill="#6b7280" font-size="11" text-anchor="middle">24k</text>
<line x1="610.0" y1="118" x2="610.0" y2="466" stroke="#2a2e37" stroke-width="1" opacity="0.5"/>
<text x="610.0" y="484.0" fill="#6b7280" font-size="11" text-anchor="middle">32k</text>
<text x="380.0" y="506.0" fill="#9aa3b2" font-size="12" text-anchor="middle">KV context held per agent (tokens)</text>
<text x="30" y="292.0" fill="#9aa3b2" font-size="12" text-anchor="middle" transform="rotate(-90 30 292.0)">GB streamed per decode step (batch of 8)</text>
<rect x="150" y="118" width="460.0" height="241.7" fill="#f2994a" opacity="0.05"/>
<line x1="150" y1="359.7" x2="610" y2="359.7" stroke="#8b93a3" stroke-width="2.4" stroke-dasharray="7 4"/>
<text x="604" y="351.7" fill="#8b93a3" font-size="11" text-anchor="end" font-weight="700">shared weight stream 5.5 GB (paid once, split 8 ways)</text>
<line x1="150.0" y1="466.0" x2="386.6" y2="118.0" stroke="#f2994a" stroke-width="3.2"/>
<text x="392.6" y="132.0" fill="#f2994a" font-size="10">FP16 KV runs off-card &gt;16.5k</text>
<line x1="150.0" y1="466.0" x2="610.0" y2="127.7" stroke="#2dd4bf" stroke-width="3.2"/>
<text x="606.0" y="119.7" fill="#2dd4bf" font-size="11" text-anchor="end" font-weight="700">Q8 KV</text>
<text x="495.0" y="204.2" fill="#2dd4bf" font-size="10.5" text-anchor="end" opacity="0.85">half the bytes, half the slope</text>
<line x1="222.3" y1="359.7" x2="222.3" y2="466" stroke="#f2994a" stroke-width="1.2" stroke-dasharray="3 3" opacity="0.7"/>
<circle cx="222.3" cy="359.7" r="5.5" fill="#f2994a" stroke="#16181d" stroke-width="1.6"/>
<text x="222.3" y="460.0" fill="#f2994a" font-size="11" text-anchor="middle" font-weight="700">5k</text>
<line x1="294.6" y1="359.7" x2="294.6" y2="466" stroke="#2dd4bf" stroke-width="1.2" stroke-dasharray="3 3" opacity="0.7"/>
<circle cx="294.6" cy="359.7" r="5.5" fill="#2dd4bf" stroke="#16181d" stroke-width="1.6"/>
<text x="294.6" y="460.0" fill="#2dd4bf" font-size="11" text-anchor="middle" font-weight="700">10k</text>
<text x="222.3" y="466.0" fill="#6b7280" font-size="0"></text>
<text x="372.8" y="172.1" fill="#f2994a" font-size="11" text-anchor="middle" opacity="0.9">above the dashed line, KV read</text>
<text x="372.8" y="195.3" fill="#f2994a" font-size="11" text-anchor="middle" opacity="0.9">dominates the decode step</text>
<rect x="690" y="108" width="280" height="360" rx="10" fill="#1c1f26"/>
<text x="708" y="134" fill="#e9edf4" font-size="13" font-weight="700">Effective batch-8 decode ceiling</text>
<text x="708" y="151" fill="#9aa3b2" font-size="10.5">tokens/sec, modeled from the measured step</text>
<rect x="712.0" y="262.6" width="26" height="167.4" fill="#f2994a"/>
<text x="725.0" y="258.6" fill="#f2994a" font-size="9.5" text-anchor="middle">205</text>
<rect x="746.0" y="228.3" width="26" height="201.7" fill="#2dd4bf"/>
<text x="759.0" y="224.3" fill="#2dd4bf" font-size="9.5" text-anchor="middle">247</text>
<text x="742.0" y="446.0" fill="#9aa3b2" font-size="10.5" text-anchor="middle">4k</text>
<rect x="782.0" y="305.9" width="26" height="124.1" fill="#f2994a"/>
<text x="795.0" y="301.9" fill="#f2994a" font-size="9.5" text-anchor="middle">152</text>
<rect x="816.0" y="262.6" width="26" height="167.4" fill="#2dd4bf"/>
<text x="829.0" y="258.6" fill="#2dd4bf" font-size="9.5" text-anchor="middle">205</text>
<text x="812.0" y="446.0" fill="#9aa3b2" font-size="10.5" text-anchor="middle">8k</text>
<rect x="852.0" y="347.5" width="26" height="82.5" fill="none" stroke="#f2994a" stroke-width="1.4" stroke-dasharray="3 3" opacity="0.8"/>
<text x="865.0" y="331.5" fill="#f2994a" font-size="8.5" text-anchor="middle" opacity="0.85">OOM</text>
<text x="865.0" y="343.5" fill="#f2994a" font-size="9.5" text-anchor="middle">101</text>
<rect x="886.0" y="305.9" width="26" height="124.1" fill="#2dd4bf"/>
<text x="899.0" y="301.9" fill="#2dd4bf" font-size="9.5" text-anchor="middle">152</text>
<text x="882.0" y="446.0" fill="#9aa3b2" font-size="10.5" text-anchor="middle">16k</text>
<rect x="922.0" y="381.0" width="26" height="49.0" fill="none" stroke="#f2994a" stroke-width="1.4" stroke-dasharray="3 3" opacity="0.8"/>
<text x="935.0" y="365.0" fill="#f2994a" font-size="8.5" text-anchor="middle" opacity="0.85">OOM</text>
<text x="935.0" y="377.0" fill="#f2994a" font-size="9.5" text-anchor="middle">60</text>
<rect x="956.0" y="347.5" width="26" height="82.5" fill="none" stroke="#2dd4bf" stroke-width="1.4" stroke-dasharray="3 3" opacity="0.85"/>
<text x="969.0" y="331.5" fill="#2dd4bf" font-size="8.5" text-anchor="middle" opacity="0.9">OOM</text>
<text x="969.0" y="343.5" fill="#2dd4bf" font-size="9.5" text-anchor="middle">101</text>
<text x="952.0" y="446.0" fill="#9aa3b2" font-size="10.5" text-anchor="middle">32k</text>
<line x1="706" y1="430.0" x2="956" y2="430.0" stroke="#2a2e37" stroke-width="1"/>
<line x1="706" y1="176.0" x2="956" y2="176.0" stroke="#8b93a3" stroke-width="1" stroke-dasharray="4 3" opacity="0.6"/>
<text x="954" y="172.0" fill="#6b7280" font-size="9" text-anchor="end">311 short-context ceiling</text>
<rect x="708" y="450" width="11" height="11" fill="#f2994a"/>
<text x="724" y="459" fill="#9aa3b2" font-size="10">FP16 KV</text>
<rect x="800" y="450" width="11" height="11" fill="#2dd4bf"/>
<text x="816" y="459" fill="#9aa3b2" font-size="10">Q8 KV</text>
<text x="34" y="514" fill="#6b7280" font-size="10.5">Modeled for Qwen3.5-9B Q4_K_M on one RX 9070 XT (16 GB, ~640 GB/s). Decode step t(B,C) = 16.9 + B&#183;(1.1 + k&#183;C) ms; batch-8 shown.</text>
<text x="34" y="530" fill="#6b7280" font-size="10.5">FP16 KV: 0.14 MB/token/agent; Q8 halves it. Crossover is where batched KV traffic equals the once-per-step 5.5 GB weight read. Memory-bound decode.</text>
</svg>