<svg xmlns="http://www.w3.org/2000/svg" viewBox="0 0 1200 720" font-family="ui-sans-serif, system-ui, -apple-system, Segoe UI, Roboto, Arial, sans-serif">
  <defs>
    <linearGradient id="bg" x1="0" y1="0" x2="1" y2="1">
      <stop offset="0" stop-color="#0f1724"/>
      <stop offset="1" stop-color="#18251f"/>
    </linearGradient>
    <linearGradient id="zinc" x1="0" y1="0" x2="1" y2="0">
      <stop offset="0" stop-color="#38d7ff"/>
      <stop offset="1" stop-color="#58e6a9"/>
    </linearGradient>
    <linearGradient id="zincmute" x1="0" y1="0" x2="1" y2="0">
      <stop offset="0" stop-color="#2a6b86"/>
      <stop offset="1" stop-color="#2f7a63"/>
    </linearGradient>
    <style>
      .title { fill: #f6fbff; font-size: 33px; font-weight: 780; }
      .subtitle { fill: #aebdcc; font-size: 16px; }
      .lab { fill: #dbe6f2; font-size: 17px; font-weight: 640; }
      .sub { fill: #93a3b6; font-size: 13px; }
      .val { fill: #f6fbff; font-size: 18px; font-weight: 760; }
      .axis { fill: #8595a8; font-size: 13px; }
      .ok { fill: #7df0c0; font-size: 14px; font-weight: 800; }
    </style>
  </defs>
  <rect width="1200" height="720" fill="url(#bg)"/>
  <text x="64" y="68" class="title">ZINC CUDA catalog &#8212; decode throughput, RTX 4090</text>
  <text x="64" y="98" class="subtitle">After optimization. The two mixture-of-experts models (bright) now lead the larger dense models. Bars = tokens/sec.</text>
  <text x="1136" y="98" text-anchor="end" class="ok">&#10003; 5 / 5 token-correct</text>

  <g class="axis">
    <line x1="380" y1="148" x2="380" y2="588" stroke="#243244" stroke-width="1"/>
    <line x1="544" y1="148" x2="544" y2="588" stroke="#1c2838" stroke-width="1"/>
    <line x1="709" y1="148" x2="709" y2="588" stroke="#1c2838" stroke-width="1"/>
    <line x1="873" y1="148" x2="873" y2="588" stroke="#1c2838" stroke-width="1"/>
    <line x1="1038" y1="148" x2="1038" y2="588" stroke="#1c2838" stroke-width="1"/>
    <text x="380" y="610" text-anchor="middle">0</text>
    <text x="544" y="610" text-anchor="middle">20</text>
    <text x="709" y="610" text-anchor="middle">40</text>
    <text x="873" y="610" text-anchor="middle">60</text>
    <text x="1038" y="610" text-anchor="middle">80</text>
  </g>

  <g>
    <text x="364" y="186" text-anchor="end" class="lab">Qwen3.5-9B</text>
    <text x="364" y="204" text-anchor="end" class="sub">dense &#183; async ring</text>
    <rect x="380" y="168" width="740" height="40" rx="6" fill="url(#zincmute)"/>
    <text x="1104" y="195" text-anchor="end" class="val">90</text>

    <text x="364" y="266" text-anchor="end" class="lab">gemma-4-26B-A4B</text>
    <text x="364" y="284" text-anchor="end" class="sub">MoE &#183; batched experts</text>
    <rect x="380" y="248" width="427" height="40" rx="6" fill="url(#zinc)"/>
    <text x="795" y="275" text-anchor="end" class="val" fill="#0c1a16">52</text>

    <text x="364" y="346" text-anchor="end" class="lab">Qwen3.6-35B-A3B</text>
    <text x="364" y="364" text-anchor="end" class="sub">MoE &#183; batched experts</text>
    <rect x="380" y="328" width="329" height="40" rx="6" fill="url(#zinc)"/>
    <text x="697" y="355" text-anchor="end" class="val" fill="#0c1a16">40</text>

    <text x="364" y="426" text-anchor="end" class="lab">27B Qwen</text>
    <text x="364" y="444" text-anchor="end" class="sub">dense</text>
    <rect x="380" y="408" width="296" height="40" rx="6" fill="url(#zincmute)"/>
    <text x="688" y="435" class="val">36</text>

    <text x="364" y="506" text-anchor="end" class="lab">gemma-4-31B</text>
    <text x="364" y="524" text-anchor="end" class="sub">dense &#183; fused kernels</text>
    <rect x="380" y="488" width="247" height="40" rx="6" fill="url(#zincmute)"/>
    <text x="639" y="515" class="val">30</text>
  </g>

  <text x="64" y="662" class="subtitle">Diagnosis-driven wins: dense paths via the async stream/event ring (qwen) and kernel fusion (gemma); MoE paths via batched experts.</text>
  <text x="64" y="690" class="sub">Both MoE models decode faster than the larger dense 27B and 31B &#8212; the active-parameter advantage, unblocked by killing per-layer launch overhead.</text>
</svg>
