<svg xmlns="http://www.w3.org/2000/svg" width="1200" height="820" viewBox="0 0 1200 820" role="img" aria-labelledby="title desc">
  <title id="title">Fused versus staged dequantization</title>
  <desc id="desc">A side-by-side comparison. The staged approach dequantizes to an intermediate buffer and then multiplies. The fused approach dequantizes and accumulates in one pass with no intermediate VRAM write.</desc>
  <defs>
    <linearGradient id="paper" x1="0" y1="0" x2="1" y2="1">
      <stop offset="0%" stop-color="#f8f4ec"/>
      <stop offset="100%" stop-color="#efe7dc"/>
    </linearGradient>
    <filter id="shadow" x="-20%" y="-20%" width="140%" height="140%">
      <feDropShadow dx="0" dy="14" stdDeviation="18" flood-color="#111827" flood-opacity="0.12"/>
    </filter>
    <style>
      .title { font: 700 38px system-ui, -apple-system, sans-serif; fill: #1f2937; }
      .subtitle { font: 500 18px system-ui, -apple-system, sans-serif; fill: #6b7280; }
      .card-title { font: 700 28px system-ui, -apple-system, sans-serif; }
      .card-copy { font: 500 17px system-ui, -apple-system, sans-serif; fill: #5b6470; }
      .box-title { font: 700 20px system-ui, -apple-system, sans-serif; fill: #111827; }
      .box-copy { font: 500 14px system-ui, -apple-system, sans-serif; fill: #6b7280; }
      .badge { font: 700 18px system-ui, -apple-system, sans-serif; }
      .tiny { font: 600 12px ui-monospace, SFMono-Regular, Menlo, monospace; }
    </style>
  </defs>

  <rect width="1200" height="820" fill="url(#paper)"/>

  <g transform="translate(72 76)">
    <text class="title">The intermediate buffer is the enemy</text>
    <text class="subtitle" x="0" y="34">Single-token decode is bandwidth-bound, so extra VRAM traffic hurts more than extra arithmetic.</text>
  </g>

  <g filter="url(#shadow)">
    <rect x="72" y="154" width="486" height="586" rx="28" fill="#fff6f3" stroke="#eac7bc" stroke-width="2"/>
    <rect x="642" y="154" width="486" height="586" rx="28" fill="#f4fcf8" stroke="#c8e2d4" stroke-width="2"/>
  </g>

  <g transform="translate(108 192)">
    <text class="card-title" fill="#9a3412">Staged approach</text>
    <text class="card-copy" x="0" y="30">
      <tspan x="0" dy="0">Dequantize first, write an intermediate tensor,</tspan>
      <tspan x="0" dy="22">then read it again for the dot product.</tspan>
    </text>

    <rect x="34" y="124" width="304" height="86" rx="22" fill="#fff" stroke="#e9d3cb" stroke-width="2"/>
    <text class="box-title" x="66" y="164">Quantized weights</text>
    <text class="box-copy" x="66" y="188">Q4_K blocks come from VRAM once.</text>

    <rect x="34" y="274" width="304" height="104" rx="22" fill="#fff" stroke="#e9d3cb" stroke-width="2"/>
    <text class="box-title" x="66" y="316">Dequantize to F32 buffer</text>
    <text class="box-copy" x="66" y="342">Write the unpacked values back to VRAM.</text>
    <text class="tiny" x="66" y="364" fill="#b45309">tmp[row, k] = scale * q + min</text>

    <rect x="34" y="446" width="304" height="86" rx="22" fill="#fff" stroke="#e9d3cb" stroke-width="2"/>
    <text class="box-title" x="66" y="486">Matmul reads tmp again</text>
    <text class="box-copy" x="66" y="510">Another full pass over the same data.</text>

    <rect x="34" y="558" width="304" height="64" rx="18" fill="#9a3412"/>
    <text class="badge" x="186" y="597" text-anchor="middle" fill="#fff7ed">2x memory traffic on the hot path</text>

    <path d="M186 210 V262" stroke="#c2410c" stroke-width="5" stroke-linecap="round"/>
    <path d="M174 248 L186 270 L198 248" fill="#c2410c"/>
    <path d="M186 378 V436" stroke="#c2410c" stroke-width="5" stroke-linecap="round"/>
    <path d="M174 422 L186 444 L198 422" fill="#c2410c"/>

    <rect x="364" y="262" width="84" height="148" rx="20" fill="#fee2e2" stroke="#ef4444" stroke-width="2"/>
    <text class="badge" x="406" y="314" text-anchor="middle" fill="#991b1b">VRAM</text>
    <text class="box-copy" x="406" y="344" text-anchor="middle">read</text>
    <text class="box-copy" x="406" y="372" text-anchor="middle">write</text>
    <text class="box-copy" x="406" y="400" text-anchor="middle">read</text>
  </g>

  <g transform="translate(678 192)">
    <text class="card-title" fill="#166534">Fused approach</text>
    <text class="card-copy" x="0" y="30">
      <tspan x="0" dy="0">Unpack the quantized block into registers</tspan>
      <tspan x="0" dy="22">and accumulate immediately.</tspan>
    </text>

    <rect x="34" y="138" width="360" height="142" rx="24" fill="#fff" stroke="#d2e8dc" stroke-width="2"/>
    <text class="box-title" x="66" y="180">Fused dequant + dot product</text>
    <text class="box-copy" x="66" y="206">
      <tspan x="66" dy="0">Read quantized weights once, expand in registers,</tspan>
      <tspan x="66" dy="22">multiply on the spot.</tspan>
    </text>
    <text class="tiny" x="66" y="242" fill="#166534">sum += (scale * q + min) * x[k]</text>

    <rect x="34" y="388" width="360" height="86" rx="22" fill="#fff" stroke="#d2e8dc" stroke-width="2"/>
    <text class="box-title" x="66" y="428">Write output vector only</text>
    <text class="box-copy" x="66" y="452">The result leaves the shader once.</text>

    <path d="M214 280 V378" stroke="#16a34a" stroke-width="5" stroke-linecap="round"/>
    <path d="M202 364 L214 386 L226 364" fill="#16a34a"/>

    <rect x="34" y="558" width="360" height="64" rx="18" fill="#166534"/>
    <text class="badge" x="214" y="597" text-anchor="middle" fill="#f0fdf4">Zero intermediate buffer</text>

    <g transform="translate(406 168)">
      <rect x="0" y="0" width="86" height="86" rx="22" fill="#dcfce7" stroke="#22c55e" stroke-width="2"/>
      <text class="badge" x="43" y="42" text-anchor="middle" fill="#166534">VRAM</text>
      <text class="box-copy" x="43" y="66" text-anchor="middle">read once</text>
    </g>

    <g transform="translate(406 398)">
      <rect x="0" y="0" width="86" height="86" rx="22" fill="#ecfdf3" stroke="#22c55e" stroke-width="2"/>
      <text class="badge" x="43" y="42" text-anchor="middle" fill="#166534">OUT</text>
      <text class="box-copy" x="43" y="66" text-anchor="middle">write once</text>
    </g>
  </g>
</svg>
